<svg width="1000" height="260" viewBox="0 0 1000 260" fill="none" xmlns="http://www.w3.org/2000/svg">
<rect width="1000" height="260" fill="white"/>
<path d="M298.166 61.6309H292.314L273.924 79.8647H279.828L287.769 71.9756V140H302.293V61.6309H298.166ZM334.634 61.6309H328.782L310.392 79.8647H316.295L324.237 71.9756V140H338.761V61.6309H334.634ZM371.311 82.0068C366.765 82.0068 362.585 83.0518 358.719 85.1416V78.3496C358.719 74.9014 359.921 71.9756 362.376 69.52C364.78 67.1167 367.758 65.915 371.206 65.915C374.654 65.915 377.58 67.1167 380.036 69.52C382.439 71.9756 383.641 74.9014 383.641 78.3496V80.8574L395.135 75.7896C389.544 66.333 381.603 61.6309 371.311 61.6309C363.839 61.6309 357.465 64.2432 352.188 69.52C346.912 74.7969 344.247 81.1709 344.247 88.6421V109.018V112.989V116.333H344.456C345.449 123.125 348.427 128.767 353.442 133.26C358.458 137.753 364.414 140 371.311 140C378.782 140 385.156 137.388 390.433 132.111C395.709 126.834 398.374 120.46 398.374 112.989V109.018C398.374 101.547 395.709 95.2251 390.433 89.9482C385.156 84.6714 378.782 82.0068 371.311 82.0068ZM383.641 123.438C383.641 126.886 382.439 129.812 380.036 132.268C377.58 134.671 374.654 135.873 371.206 135.873C367.758 135.873 364.78 134.671 362.376 132.268C359.921 129.812 358.719 126.886 358.719 123.438V116.333V98.7256C358.719 95.2773 359.921 92.3516 362.376 89.9482C364.78 87.4927 367.758 86.291 371.206 86.291C374.654 86.291 377.58 87.4927 380.036 89.9482C382.439 92.3516 383.641 95.2773 383.641 98.7256V123.438ZM401.718 101.024H432.595L421.049 140H436.043L447.59 101.024H479.564V96.897H402.919L401.718 101.024ZM423.452 67.4824L467.339 93.3442H475.437L423.452 62.728V61.6309H409.032V93.3965H423.452V67.4824ZM484.998 107.242H535.52L525.854 140H540.849L550.462 107.346V107.242V105.361V103.114H486.2L484.998 107.242ZM550.462 61.6309H536.095V100.345H550.462V76.5732L562.845 66.96V61.7876L550.462 71.4009V61.6309ZM529.094 100.345H530.295V61.6309H515.875V79.2378H501.09L503.023 61.6309H488.499L484.998 96.1133V96.2178V98.0464V100.345H515.875H529.094ZM499.261 96.2178L500.62 83.3652H515.875V96.2178H499.261ZM628.988 65.3403H615.195V136.029H591.894L600.984 104.891H598.163C602.656 103.741 606.366 101.442 609.239 97.8896C612.113 94.3369 613.523 90.1572 613.523 85.4551C613.523 78.7676 610.807 73.3862 605.321 69.311H613.994V65.3403H595.864V61.6309H582.071V65.3403H563.837V69.311H572.562C567.077 73.3862 564.308 78.7676 564.308 85.4551C564.308 90.9409 566.241 95.6953 570.159 99.5615C574.025 103.48 578.728 105.413 584.266 105.413H586.46L577.526 136.029H564.621L563.472 140H615.195H619.845H628.988V98.5688L637.922 91.6201V86.6045L628.988 93.5532V65.3403ZM578.101 90.6274V80.2827C578.101 77.2524 579.146 74.6924 581.288 72.6025C583.377 70.4604 585.938 69.4155 588.916 69.4155C591.946 69.4155 594.454 70.4604 596.596 72.6025C598.686 74.6924 599.783 77.2524 599.783 80.2827V90.6274C599.783 93.6055 598.686 96.1655 596.596 98.3076C594.454 100.397 591.946 101.495 588.916 101.495C585.938 101.495 583.377 100.397 581.288 98.3076C579.146 96.1655 578.101 93.6055 578.101 90.6274ZM682.436 73.0728H689.071V68.9453H684.056L687.034 61.6309H671.621L668.695 68.9453H645.08L643.878 73.0728H667.076L640.482 140H655.477L671.151 101.077L680.973 140H685.205L673.763 94.5981L682.436 73.0728ZM693.042 93.3965L681.861 102.122L679.719 109.018L693.042 98.5688V139.687H707.41V61.6309H693.042V93.3965ZM708.559 139.687H722.927V61.6309H708.559V139.687Z" fill="black"/>
<path d="M341.197 161.914H338.354L329.416 170.775H332.285L336.145 166.941V200H343.203V161.914H341.197ZM358.92 161.914H356.076L347.139 170.775H350.008L353.867 166.941V200H360.926V161.914H358.92ZM376.744 171.816C374.535 171.816 372.504 172.324 370.625 173.34V170.039C370.625 168.363 371.209 166.941 372.402 165.748C373.57 164.58 375.018 163.996 376.693 163.996C378.369 163.996 379.791 164.58 380.984 165.748C382.152 166.941 382.736 168.363 382.736 170.039V171.258L388.322 168.795C385.605 164.199 381.746 161.914 376.744 161.914C373.113 161.914 370.016 163.184 367.451 165.748C364.887 168.312 363.592 171.41 363.592 175.041V184.943V186.873V188.498H363.693C364.176 191.799 365.623 194.541 368.061 196.725C370.498 198.908 373.393 200 376.744 200C380.375 200 383.473 198.73 386.037 196.166C388.602 193.602 389.896 190.504 389.896 186.873V184.943C389.896 181.312 388.602 178.24 386.037 175.676C383.473 173.111 380.375 171.816 376.744 171.816ZM382.736 191.951C382.736 193.627 382.152 195.049 380.984 196.242C379.791 197.41 378.369 197.994 376.693 197.994C375.018 197.994 373.57 197.41 372.402 196.242C371.209 195.049 370.625 193.627 370.625 191.951V188.498V179.941C370.625 178.266 371.209 176.844 372.402 175.676C373.57 174.482 375.018 173.898 376.693 173.898C378.369 173.898 379.791 174.482 380.984 175.676C382.152 176.844 382.736 178.266 382.736 179.941V191.951ZM442.709 161.914L436.691 186.492L430.699 161.914H430.547H423.641H423.488L417.496 186.492L411.479 161.914H404.42L413.738 200H414.195H420.797H421.254L427.094 176.082L432.934 200H433.391H439.992H440.449L449.768 161.914H442.709ZM461.6 174.609C457.74 174.609 454.77 176.387 452.662 179.941L456.979 181.846V180.906C456.979 179.611 457.436 178.494 458.35 177.58C459.264 176.666 460.355 176.209 461.65 176.209C462.945 176.209 464.062 176.666 464.977 177.58C465.891 178.494 466.348 179.611 466.348 180.906V184.867C465.611 184.613 464.85 184.512 464.037 184.512H459.188C457.055 184.512 455.227 185.273 453.703 186.771C452.205 188.295 451.443 190.123 451.443 192.256C451.443 194.389 452.205 196.217 453.703 197.74C455.227 199.238 457.055 200 459.188 200H464.037C465.307 200 466.449 199.721 467.516 199.162L471.781 200V192.256V184.791C471.781 181.973 470.791 179.586 468.811 177.58C466.805 175.6 464.418 174.609 461.6 174.609ZM466.246 193.754C466.246 195.049 465.789 196.166 464.875 197.08C463.961 197.994 462.869 198.451 461.574 198.451C460.279 198.451 459.162 197.994 458.248 197.08C457.334 196.166 456.877 195.049 456.877 193.754V190.758C456.877 189.438 457.334 188.346 458.248 187.432C459.162 186.518 460.279 186.061 461.574 186.061C462.869 186.061 463.961 186.518 464.875 187.432C465.789 188.346 466.246 189.438 466.246 190.758V193.754ZM491.789 194.084C491.611 195.328 491.078 196.344 490.189 197.182C489.275 197.994 488.209 198.4 486.965 198.4C485.619 198.4 484.477 197.918 483.512 196.979C482.572 196.039 482.09 194.896 482.09 193.551V188.625L482.141 188.65V180.678H493.566V179.053H482.141V173.568H476.402V179.053H473.889V180.678H476.402V189.463C476.402 192.357 477.418 194.846 479.5 196.902C481.557 198.959 484.045 200 486.965 200C491.154 200 494.303 198.02 496.461 194.084H491.789ZM511.543 193.703C511.543 194.998 511.111 196.09 510.197 197.029C509.283 197.943 508.191 198.4 506.896 198.4C505.602 198.4 504.51 197.943 503.596 197.029C502.707 196.09 502.25 194.998 502.25 193.703V187.406L515.834 181.617C515.834 181.439 515.834 181.287 515.809 181.135C515.656 179.738 515.072 178.545 514.057 177.555C512 175.498 509.436 174.533 506.338 174.609C503.57 174.863 501.311 175.98 499.533 177.986C497.73 179.992 496.842 182.354 496.842 185.07V186.035V186.924V189.818C496.842 192.637 497.832 195.023 499.812 197.029C501.768 199.01 504.154 200 506.947 200C510.781 200 513.752 198.223 515.834 194.643L511.543 192.764V193.703ZM502.25 181.084C502.25 179.814 502.656 178.697 503.52 177.732C504.383 176.793 505.449 176.285 506.744 176.209C508.115 176.209 509.258 176.666 510.172 177.555C511.086 178.469 511.543 179.586 511.543 180.906V181.744L502.25 185.73V181.084ZM538.686 181.439C536.604 176.895 533.303 174.609 528.783 174.609C526.371 174.609 524.264 175.32 522.385 176.768L518.17 175.092V185.248V190.555V200H523.934V194.592V189.285V181.109C523.934 179.764 524.391 178.621 525.355 177.656C526.295 176.717 527.463 176.234 528.809 176.234C530.154 176.234 531.297 176.717 532.262 177.656C533.201 178.621 533.684 179.764 533.684 181.109V186.416L538.686 181.439ZM585.1 161.914H584.846L572.938 196.953L561.029 161.914H560.775H553.768V200H560.775V167.729L571.77 200H571.896H573.979H574.105L585.1 167.729V200H592.107V161.914H585.1ZM608.941 193.703C608.941 194.998 608.51 196.09 607.596 197.029C606.682 197.943 605.59 198.4 604.295 198.4C603 198.4 601.908 197.943 600.994 197.029C600.105 196.09 599.648 194.998 599.648 193.703V187.406L613.232 181.617C613.232 181.439 613.232 181.287 613.207 181.135C613.055 179.738 612.471 178.545 611.455 177.555C609.398 175.498 606.834 174.533 603.736 174.609C600.969 174.863 598.709 175.98 596.932 177.986C595.129 179.992 594.24 182.354 594.24 185.07V186.035V186.924V189.818C594.24 192.637 595.23 195.023 597.211 197.029C599.166 199.01 601.553 200 604.346 200C608.18 200 611.15 198.223 613.232 194.643L608.941 192.764V193.703ZM599.648 181.084C599.648 179.814 600.055 178.697 600.918 177.732C601.781 176.793 602.848 176.285 604.143 176.209C605.514 176.209 606.656 176.666 607.57 177.555C608.484 178.469 608.941 179.586 608.941 180.906V181.744L599.648 185.73V181.084ZM615.568 165.951V172.73V175.65V200L620.824 198.959V171.74V168.795V161.914L615.568 165.951ZM633.469 174.609C630.65 174.609 628.264 175.6 626.258 177.58C624.277 179.561 623.287 181.973 623.287 184.766V189.844C623.287 192.637 624.277 195.049 626.258 197.029C628.264 199.01 630.65 200 633.469 200C636.287 200 638.674 199.01 640.68 197.029C642.66 195.049 643.65 192.637 643.65 189.844V184.766C643.65 181.973 642.66 179.561 640.68 177.58C638.674 175.6 636.287 174.609 633.469 174.609ZM638.141 193.779C638.141 195.074 637.684 196.166 636.77 197.08C635.855 197.994 634.738 198.451 633.443 198.451C632.148 198.451 631.057 197.994 630.143 197.08C629.229 196.166 628.771 195.074 628.771 193.779V180.906C628.771 179.637 629.229 178.52 630.143 177.605C631.057 176.717 632.148 176.26 633.443 176.26C634.738 176.26 635.855 176.717 636.77 177.605C637.684 178.52 638.141 179.637 638.141 180.906V193.779ZM651.775 200V194.592V189.285V181.109C651.775 179.764 652.232 178.621 653.197 177.656C654.137 176.717 655.279 176.234 656.625 176.234C657.971 176.234 659.113 176.717 660.053 177.656C660.992 178.621 661.475 179.764 661.475 181.109V186.086L661.424 186.061V200H667.162V190.555V188.244V185.248C667.162 182.303 666.121 179.789 664.064 177.732C662.008 175.65 659.52 174.609 656.6 174.609C654.213 174.609 652.08 175.32 650.252 176.768L646.037 175.092V185.248V190.555V200H651.775Z" fill="black"/>
</svg>
